<?xml version="1.0" encoding="UTF-8"?>
<svg version="1.1" xmlns="http://www.w3.org/2000/svg" width="96" height="96">
<path d="M0 0 C3 0.5625 3 0.5625 5.375 2.125 C7 4.5625 7 4.5625 7 11.5625 C18.88 11.5625 30.76 11.5625 43 11.5625 C43 9.2525 43 6.9425 43 4.5625 C44.625 2.125 44.625 2.125 47 0.5625 C50 0 50 0 53 0.5625 C56.05661905 3.29736967 56.93974578 4.76413153 57.25 8.875 C57.1675 9.761875 57.085 10.64875 57 11.5625 C57.99580078 11.47548828 57.99580078 11.47548828 59.01171875 11.38671875 C66.27568367 11.01556726 66.27568367 11.01556726 70.0625 13.875 C73.98731798 19.31910236 73.18370742 24.98253364 73.1875 31.4375 C73.19974609 32.52675781 73.21199219 33.61601563 73.22460938 34.73828125 C73.22654297 35.79144531 73.22847656 36.84460937 73.23046875 37.9296875 C73.23457764 38.88987793 73.23868652 39.85006836 73.24291992 40.83935547 C72.91406188 44.52587061 71.91571322 47.39704681 69.625 50.3125 C65.82827508 53.23305763 61.60977268 52.589301 57 52.5625 C57.03927612 53.52289185 57.03927612 53.52289185 57.0793457 54.50268555 C57.18361281 57.41820502 57.24841753 60.33333198 57.3125 63.25 C57.35439453 64.25740234 57.39628906 65.26480469 57.43945312 66.30273438 C57.5629504 73.7866692 57.5629504 73.7866692 54.67578125 77.765625 C52 79.5625 52 79.5625 48.875 79.625 C45.55332221 78.39742342 44.77769394 77.56217615 43 74.5625 C42.65942383 72.08886719 42.65942383 72.08886719 42.70703125 69.359375 C42.71827026 68.03437988 42.71827026 68.03437988 42.72973633 66.68261719 C42.75704834 65.57047852 42.78436035 64.45833984 42.8125 63.3125 C42.874375 59.765 42.93625 56.2175 43 52.5625 C31.12 52.5625 19.24 52.5625 7 52.5625 C7.19713207 59.57850481 7.19713207 59.57850481 7.45043945 66.5925293 C7.55263422 73.80088646 7.55263422 73.80088646 4.67578125 77.765625 C2 79.5625 2 79.5625 -1.125 79.625 C-4.44667779 78.39742342 -5.22230606 77.56217615 -7 74.5625 C-7.34057617 72.08886719 -7.34057617 72.08886719 -7.29296875 69.359375 C-7.28330078 68.3796875 -7.27363281 67.4 -7.26367188 66.390625 C-7.23853516 65.37484375 -7.21339844 64.3590625 -7.1875 63.3125 C-7.17396484 62.28125 -7.16042969 61.25 -7.14648438 60.1875 C-7.11117607 57.64530208 -7.06186036 55.10416777 -7 52.5625 C-8.64742187 52.58763672 -8.64742187 52.58763672 -10.328125 52.61328125 C-14.65215299 52.55348086 -17.35148855 51.85775899 -20.75 49.1875 C-23.26237668 45.92141032 -23.11498755 42.30155385 -23.0625 38.3125 C-23.05347656 37.42046875 -23.04445313 36.5284375 -23.03515625 35.609375 C-23.02355469 34.93390625 -23.01195313 34.2584375 -23 33.5625 C-21.02 33.0675 -21.02 33.0675 -19 32.5625 C-18.95101563 33.47773437 -18.90203125 34.39296875 -18.8515625 35.3359375 C-18.77679687 36.52445313 -18.70203125 37.71296875 -18.625 38.9375 C-18.55539063 40.12085938 -18.48578125 41.30421875 -18.4140625 42.5234375 C-18.29782654 45.66812319 -18.29782654 45.66812319 -16 47.5625 C-13.39076595 47.760896 -10.88767473 47.83525976 -8.27734375 47.82128906 C-7.08203537 47.82654602 -7.08203537 47.82654602 -5.86257935 47.83190918 C-3.22079838 47.84073278 -0.57928383 47.83487518 2.0625 47.828125 C3.89331107 47.82947147 5.7241218 47.83141185 7.55493164 47.83392334 C11.3950541 47.83687545 15.23508363 47.83257417 19.07519531 47.82324219 C24.00518694 47.8118476 28.93496083 47.8184066 33.86494446 47.83038712 C37.64637909 47.83760337 41.42776183 47.83531887 45.209198 47.83013153 C47.02733384 47.82879438 48.84547434 47.83044502 50.66360474 47.83509064 C53.20164526 47.84015204 55.73932984 47.83245123 58.27734375 47.82128906 C59.03377167 47.82533752 59.79019958 47.82938599 60.56954956 47.83355713 C64.74123849 47.93624525 64.74123849 47.93624525 68 45.5625 C68.46175646 40.91292025 68.32399074 36.23233724 68.3125 31.5625 C68.32861328 30.2528125 68.34472656 28.943125 68.36132812 27.59375 C68.36229492 25.72203125 68.36229492 25.72203125 68.36328125 23.8125 C68.36626221 22.66265625 68.36924316 21.5128125 68.37231445 20.328125 C68.24945068 19.41546875 68.12658691 18.5028125 68 17.5625 C64.33490445 15.11910297 61.6001299 15.28029618 57.36328125 15.30371094 C56.5873764 15.3002063 55.81147156 15.29670166 55.01205444 15.29309082 C52.44544548 15.28428316 49.87911181 15.2901192 47.3125 15.296875 C45.53035428 15.29552807 43.74820892 15.29358731 41.96606445 15.29107666 C38.23027042 15.28812671 34.49457199 15.2924189 30.75878906 15.30175781 C25.96680593 15.31315228 21.17504681 15.30659212 16.3830719 15.29461288 C12.70282295 15.28739081 9.02262725 15.28968381 5.34237671 15.29486847 C3.57530694 15.296204 1.80823236 15.2945606 0.04116821 15.28990936 C-2.42711213 15.28483843 -4.89502809 15.29256223 -7.36328125 15.30371094 C-8.09584137 15.29966248 -8.82840149 15.29561401 -9.5831604 15.29144287 C-13.27800734 15.32240883 -14.83991827 15.45577884 -18 17.5625 C-18.57993699 19.75704681 -18.57993699 19.75704681 -18.6875 22.1875 C-18.75324219 23.00476563 -18.81898437 23.82203125 -18.88671875 24.6640625 C-18.92410156 25.29054688 -18.96148438 25.91703125 -19 26.5625 C-20.32 26.2325 -21.64 25.9025 -23 25.5625 C-22.88850438 20.91009195 -22.58842507 17.49259124 -20.0625 13.5 C-15.72694581 10.75709837 -11.99590472 11.12596464 -7 11.5625 C-7.12375 10.2321875 -7.12375 10.2321875 -7.25 8.875 C-6.86758792 3.80803991 -5.13218113 0.96228396 0 0 Z " fill="#1E709E" transform="translate(23,5.4375)"/>
<path d="M0 0 C0.99 0 1.98 0 3 0 C3.66 2.64 4.32 5.28 5 8 C6.2065625 7.7215625 6.2065625 7.7215625 7.4375 7.4375 C8.7059375 7.2209375 8.7059375 7.2209375 10 7 C10.33 7.33 10.66 7.66 11 8 C11.33 5.69 11.66 3.38 12 1 C17.21468969 -0.60744075 22.59904037 -0.05870608 28 0 C28 4.95 28 9.9 28 15 C29.65 15 31.3 15 33 15 C32.505 14.01 32.505 14.01 32 13 C31.31339402 6.01950585 31.31339402 6.01950585 34.0625 1.9375 C37 0 37 0 40.8125 0.1875 C41.864375 0.455625 42.91625 0.72375 44 1 C44.495 3.475 44.495 3.475 45 6 C43.02 5.34 41.04 4.68 39 4 C37.31318262 5.10041919 37.31318262 5.10041919 36 7 C36.23283149 10.14921909 36.23283149 10.14921909 37 13 C40.05263664 13.98120464 41.94736336 13.98120464 45 13 C44.125 16.875 44.125 16.875 43 18 C40.66705225 18.04241723 38.33297433 18.04092937 36 18 C35.34 18 34.68 18 34 18 C28 18 22 18 16 18 C15.67 15.69 15.34 13.38 15 11 C14.34 13.31 13.68 15.62 13 18 C12.01 18 11.02 18 10 18 C9.34 16.68 8.68 15.36 8 14 C7.3503125 14.99 7.3503125 14.99 6.6875 16 C6.130625 16.66 5.57375 17.32 5 18 C4.01 18 3.02 18 2 18 C0.59545452 11.88019467 -0.23268915 6.28260706 0 0 Z M19 3 C19 4.65 19 6.3 19 8 C20.98 8 22.96 8 25 8 C25 6.35 25 4.7 25 3 C23.02 3 21.04 3 19 3 Z M19 11 C19 12.32 19 13.64 19 15 C20.98 15 22.96 15 25 15 C25 13.68 25 12.36 25 11 C23.02 11 21.04 11 19 11 Z " fill="#1C6FA0" transform="translate(5,28)"/>
<path d="M0 0 C3.4375 0.75 3.4375 0.75 5.4375 2.75 C6.0975 1.76 6.7575 0.77 7.4375 -0.25 C10.05937494 0.79874998 11.23121361 1.39931313 12.6875 3.875 C12.935 4.49375 13.1825 5.1125 13.4375 5.75 C14.035625 4.76 14.63375 3.77 15.25 2.75 C15.971875 1.76 16.69375 0.77 17.4375 -0.25 C18.4275 -0.25 19.4175 -0.25 20.4375 -0.25 C20.4375 5.69 20.4375 11.63 20.4375 17.75 C19.4475 17.75 18.4575 17.75 17.4375 17.75 C17.1075 15.11 16.7775 12.47 16.4375 9.75 C16.1075 10.41 15.7775 11.07 15.4375 11.75 C13.5 11.375 13.5 11.375 11.4375 10.75 C11.1075 10.09 10.7775 9.43 10.4375 8.75 C10.1075 11.72 9.7775 14.69 9.4375 17.75 C8.4475 17.75 7.4575 17.75 6.4375 17.75 C6.1075 17.09 5.7775 16.43 5.4375 15.75 C4.4475 16.41 3.4575 17.07 2.4375 17.75 C-1.41015451 18.16974413 -3.65881706 18.34452825 -6.9375 16.1875 C-9.09788251 12.94692624 -9.49437446 10.63315597 -9.5625 6.75 C-7.45375703 2.00532831 -5.44152901 -0.38186169 0 0 Z M-1.5625 2.75 C-3.68172127 3.83743288 -3.68172127 3.83743288 -5.5625 5.75 C-6.03469016 8.98787539 -6.10215989 10.86950228 -4.375 13.6875 C-2.53337934 14.99676393 -2.53337934 14.99676393 0.0625 14.5625 C2.60302003 14.00355766 2.60302003 14.00355766 3.4375 11.75 C3.93760524 8.79230823 3.93760524 8.79230823 3.4375 5.75 C1.04693058 3.8145852 1.04693058 3.8145852 -1.5625 2.75 Z " fill="#1B6F9F" transform="translate(59.5625,28.25)"/>
<path d="M0 0 C2.64 0 5.28 0 8 0 C8.05786668 3.79160297 8.09355054 7.58309311 8.125 11.375 C8.14175781 12.45523438 8.15851563 13.53546875 8.17578125 14.6484375 C8.18222656 15.6796875 8.18867187 16.7109375 8.1953125 17.7734375 C8.20578613 18.72653809 8.21625977 19.67963867 8.22705078 20.66162109 C8 23 8 23 6 25 C1.44444444 24.44444444 1.44444444 24.44444444 0 23 C-0.08713831 21.29227642 -0.10700007 19.58101351 -0.09765625 17.87109375 C-0.09443359 16.83662109 -0.09121094 15.80214844 -0.08789062 14.73632812 C-0.07951172 13.64771484 -0.07113281 12.55910156 -0.0625 11.4375 C-0.05798828 10.34501953 -0.05347656 9.25253906 -0.04882812 8.12695312 C-0.03699826 5.41791505 -0.02051543 2.70898401 0 0 Z " fill="#F76349" transform="translate(69,57)"/>
<path d="M0 0 C2.64 0 5.28 0 8 0 C8.05786668 3.79160297 8.09355054 7.58309311 8.125 11.375 C8.14175781 12.45523438 8.15851562 13.53546875 8.17578125 14.6484375 C8.18222656 15.6796875 8.18867188 16.7109375 8.1953125 17.7734375 C8.20578613 18.72653809 8.21625977 19.67963867 8.22705078 20.66162109 C8 23 8 23 6 25 C1.44444444 24.44444444 1.44444444 24.44444444 0 23 C-0.08713831 21.29227642 -0.10700007 19.58101351 -0.09765625 17.87109375 C-0.09443359 16.83662109 -0.09121094 15.80214844 -0.08789062 14.73632812 C-0.07951172 13.64771484 -0.07113281 12.55910156 -0.0625 11.4375 C-0.05798828 10.34501953 -0.05347656 9.25253906 -0.04882812 8.12695312 C-0.03699826 5.41791505 -0.02051543 2.70898401 0 0 Z " fill="#F76349" transform="translate(19,57)"/>
<path d="M0 0 C1.23556641 0.01740234 1.23556641 0.01740234 2.49609375 0.03515625 C3.32238281 0.04417969 4.14867188 0.05320312 5 0.0625 C5.63808594 0.07410156 6.27617188 0.08570312 6.93359375 0.09765625 C6.93359375 1.08765625 6.93359375 2.07765625 6.93359375 3.09765625 C4.62359375 3.09765625 2.31359375 3.09765625 -0.06640625 3.09765625 C-0.06640625 4.74765625 -0.06640625 6.39765625 -0.06640625 8.09765625 C2.24359375 8.09765625 4.55359375 8.09765625 6.93359375 8.09765625 C6.93359375 9.08765625 6.93359375 10.07765625 6.93359375 11.09765625 C4.62359375 11.09765625 2.31359375 11.09765625 -0.06640625 11.09765625 C-0.06640625 12.41765625 -0.06640625 13.73765625 -0.06640625 15.09765625 C2.24359375 15.09765625 4.55359375 15.09765625 6.93359375 15.09765625 C6.93359375 16.08765625 6.93359375 17.07765625 6.93359375 18.09765625 C3.63359375 18.09765625 0.33359375 18.09765625 -3.06640625 18.09765625 C-3.09324937 15.28509344 -3.11316813 12.47278384 -3.12890625 9.66015625 C-3.13728516 8.85771484 -3.14566406 8.05527344 -3.15429688 7.22851562 C-3.16292055 5.18470404 -3.11868775 3.14081723 -3.06640625 1.09765625 C-2.06640625 0.09765625 -2.06640625 0.09765625 0 0 Z " fill="#1C709F" transform="translate(84.06640625,27.90234375)"/>
<path d="M0 0 C2.5625 0.1875 2.5625 0.1875 4.5625 2.1875 C4.6875 5.3125 4.6875 5.3125 4.5625 8.1875 C1.9225 8.1875 -0.7175 8.1875 -3.4375 8.1875 C-3.47991723 5.85455225 -3.47842937 3.52047433 -3.4375 1.1875 C-2.4375 0.1875 -2.4375 0.1875 0 0 Z " fill="#F7634A" transform="translate(72.4375,8.8125)"/>
<path d="M0 0 C0.78375 0.04125 1.5675 0.0825 2.375 0.125 C3.72939668 2.83379335 3.44001451 5.13433268 3.375 8.125 C0.735 8.125 -1.905 8.125 -4.625 8.125 C-4.75 5.25 -4.75 5.25 -4.625 2.125 C-2.625 0.125 -2.625 0.125 0 0 Z " fill="#F96349" transform="translate(23.625,8.875)"/>
<path d="M0 0 C1.32 0 2.64 0 4 0 C4 1.32 4 2.64 4 4 C2.68 3.67 1.36 3.34 0 3 C0 2.01 0 1.02 0 0 Z " fill="#1A69A4" transform="translate(0,33)"/>
</svg>
